<?xml version="1.0" encoding="UTF-8" standalone="no"?><!DOCTYPE svg PUBLIC "-//W3C//DTD SVG 1.1//EN" "http://www.w3.org/Graphics/SVG/1.1/DTD/svg11.dtd"><!-- Generated by graphviz version 2.40.1 (20161225.0304)
 --><!-- Title: %0 Pages: 1 --><svg xmlns="http://www.w3.org/2000/svg" xmlns:xlink="http://www.w3.org/1999/xlink" width="993pt" height="1087pt" viewBox="0.00 0.00 992.89 1086.65">
<g id="graph0" class="graph" transform="scale(1 1) rotate(0) translate(4 1082.6524)">
<title>%0</title>
<polygon fill="#ffffff" stroke="transparent" points="-4,4 -4,-1082.6524 988.8932,-1082.6524 988.8932,4 -4,4"/>
<!-- admin -->
<g id="node1" class="node">
<title>admin</title>
<path fill="none" stroke="#000000" d="M36.709,-416.8524C36.709,-416.8524 66.709,-416.8524 66.709,-416.8524 72.709,-416.8524 78.709,-422.8524 78.709,-428.8524 78.709,-428.8524 78.709,-440.8524 78.709,-440.8524 78.709,-446.8524 72.709,-452.8524 66.709,-452.8524 66.709,-452.8524 36.709,-452.8524 36.709,-452.8524 30.709,-452.8524 24.709,-446.8524 24.709,-440.8524 24.709,-440.8524 24.709,-428.8524 24.709,-428.8524 24.709,-422.8524 30.709,-416.8524 36.709,-416.8524"/>
<text text-anchor="middle" x="51.709" y="-430.7524" font-family="Times,serif" font-size="14.00" fill="#000000">admin</text>
</g>
<!-- admin&#45;&gt;admin -->
<g id="edge6" class="edge">
<title>admin-&gt;admin</title>
<path fill="none" stroke="#000000" d="M27.2611,-452.8811C23.1066,-462.5467 31.2559,-471.3524 51.709,-471.3524 64.4922,-471.3524 72.4692,-467.9127 75.6401,-462.9731"/>
<polygon fill="#000000" stroke="#000000" points="79.1408,-463.047 76.1569,-452.8811 72.1499,-462.689 79.1408,-463.047"/>
<text text-anchor="middle" x="51.709" y="-475.5524" font-family="Times,serif" font-size="14.00" fill="#000000">show fsm diagram</text>
</g>
<!-- config -->
<g id="node2" class="node">
<title>config</title>
<path fill="none" stroke="#000000" d="M336.6874,-581.8524C336.6874,-581.8524 366.6874,-581.8524 366.6874,-581.8524 372.6874,-581.8524 378.6874,-587.8524 378.6874,-593.8524 378.6874,-593.8524 378.6874,-605.8524 378.6874,-605.8524 378.6874,-611.8524 372.6874,-617.8524 366.6874,-617.8524 366.6874,-617.8524 336.6874,-617.8524 336.6874,-617.8524 330.6874,-617.8524 324.6874,-611.8524 324.6874,-605.8524 324.6874,-605.8524 324.6874,-593.8524 324.6874,-593.8524 324.6874,-587.8524 330.6874,-581.8524 336.6874,-581.8524"/>
<text text-anchor="middle" x="351.6874" y="-595.7524" font-family="Times,serif" font-size="14.00" fill="#000000">config</text>
</g>
<!-- admin&#45;&gt;config -->
<g id="edge1" class="edge">
<title>admin-&gt;config</title>
<path fill="none" stroke="#000000" d="M55.0081,-453.0388C61.6119,-487.2949 77.4834,-559.3446 96.709,-574.8524 159.1555,-625.2232 260.1869,-617.0237 314.4288,-607.7835"/>
<polygon fill="#000000" stroke="#000000" points="315.0914,-611.2205 324.3104,-605.9994 313.8476,-604.3319 315.0914,-611.2205"/>
<text text-anchor="middle" x="188.6512" y="-618.0524" font-family="Times,serif" font-size="14.00" fill="#000000">config user info / func15</text>
</g>
<!-- create[admin] -->
<g id="node3" class="node">
<title>create[admin]</title>
<path fill="none" stroke="#000000" d="M316.8241,-331.8524C316.8241,-331.8524 386.5507,-331.8524 386.5507,-331.8524 392.5507,-331.8524 398.5507,-337.8524 398.5507,-343.8524 398.5507,-343.8524 398.5507,-355.8524 398.5507,-355.8524 398.5507,-361.8524 392.5507,-367.8524 386.5507,-367.8524 386.5507,-367.8524 316.8241,-367.8524 316.8241,-367.8524 310.8241,-367.8524 304.8241,-361.8524 304.8241,-355.8524 304.8241,-355.8524 304.8241,-343.8524 304.8241,-343.8524 304.8241,-337.8524 310.8241,-331.8524 316.8241,-331.8524"/>
<text text-anchor="middle" x="351.6874" y="-345.7524" font-family="Times,serif" font-size="14.00" fill="#000000">create[admin]</text>
</g>
<!-- admin&#45;&gt;create[admin] -->
<g id="edge3" class="edge">
<title>admin-&gt;create[admin]</title>
<path fill="none" stroke="#000000" d="M66.0213,-416.5826C74.0473,-407.6746 84.8245,-397.6899 96.709,-392.0524 171.1343,-356.7481 199.7537,-384.6785 280.5934,-368.8524 285.2089,-367.9488 289.9671,-366.9122 294.7315,-365.7995"/>
<polygon fill="#000000" stroke="#000000" points="295.5879,-369.1934 304.476,-363.427 293.9319,-362.392 295.5879,-369.1934"/>
<text text-anchor="middle" x="188.6512" y="-396.0524" font-family="Times,serif" font-size="14.00" fill="#000000">create instances / func34 [func9]</text>
</g>
<!-- create[user] -->
<g id="node4" class="node">
<title>create[user]</title>
<path fill="none" stroke="#000000" d="M908.6119,-936.8524C908.6119,-936.8524 966.6625,-936.8524 966.6625,-936.8524 972.6625,-936.8524 978.6625,-942.8524 978.6625,-948.8524 978.6625,-948.8524 978.6625,-960.8524 978.6625,-960.8524 978.6625,-966.8524 972.6625,-972.8524 966.6625,-972.8524 966.6625,-972.8524 908.6119,-972.8524 908.6119,-972.8524 902.6119,-972.8524 896.6119,-966.8524 896.6119,-960.8524 896.6119,-960.8524 896.6119,-948.8524 896.6119,-948.8524 896.6119,-942.8524 902.6119,-936.8524 908.6119,-936.8524"/>
<text text-anchor="middle" x="937.6372" y="-950.7524" font-family="Times,serif" font-size="14.00" fill="#000000">create[user]</text>
</g>
<!-- admin&#45;&gt;create[user] -->
<g id="edge2" class="edge">
<title>admin-&gt;create[user]</title>
<path fill="none" stroke="#000000" d="M52.4735,-452.8996C56.5484,-547.0992 76.293,-978.7698 96.709,-997.8524 222.6371,-1115.5557 707.6496,-1048.6014 872.3812,-997.8524 885.2725,-993.881 897.9932,-986.5086 908.7314,-978.976"/>
<polygon fill="#000000" stroke="#000000" points="910.9138,-981.7154 916.8836,-972.9625 906.7584,-976.0822 910.9138,-981.7154"/>
<text text-anchor="middle" x="514.7236" y="-1066.0524" font-family="Times,serif" font-size="14.00" fill="#000000">create instances / func27 [func8]</text>
</g>
<!-- info[admin] -->
<g id="node5" class="node">
<title>info[admin]</title>
<path fill="none" stroke="#000000" d="M322.2533,-266.8524C322.2533,-266.8524 381.1215,-266.8524 381.1215,-266.8524 387.1215,-266.8524 393.1215,-272.8524 393.1215,-278.8524 393.1215,-278.8524 393.1215,-290.8524 393.1215,-290.8524 393.1215,-296.8524 387.1215,-302.8524 381.1215,-302.8524 381.1215,-302.8524 322.2533,-302.8524 322.2533,-302.8524 316.2533,-302.8524 310.2533,-296.8524 310.2533,-290.8524 310.2533,-290.8524 310.2533,-278.8524 310.2533,-278.8524 310.2533,-272.8524 316.2533,-266.8524 322.2533,-266.8524"/>
<text text-anchor="middle" x="351.6874" y="-280.7524" font-family="Times,serif" font-size="14.00" fill="#000000">info[admin]</text>
</g>
<!-- admin&#45;&gt;info[admin] -->
<g id="edge8" class="edge">
<title>admin-&gt;info[admin]</title>
<path fill="none" stroke="#000000" d="M56.0409,-416.5553C63.6395,-386.0891 80.1429,-327.019 96.709,-314.0524 112.3527,-301.8078 229.9494,-292.452 299.8537,-287.9028"/>
<polygon fill="#000000" stroke="#000000" points="300.4655,-291.3709 310.222,-287.2405 300.0192,-284.3852 300.4655,-291.3709"/>
<text text-anchor="middle" x="188.6512" y="-318.0524" font-family="Times,serif" font-size="14.00" fill="#000000">show info / func32 [func5]</text>
</g>
<!-- info[user] -->
<g id="node6" class="node">
<title>info[user]</title>
<path fill="none" stroke="#000000" d="M914.0411,-806.8524C914.0411,-806.8524 961.2333,-806.8524 961.2333,-806.8524 967.2333,-806.8524 973.2333,-812.8524 973.2333,-818.8524 973.2333,-818.8524 973.2333,-830.8524 973.2333,-830.8524 973.2333,-836.8524 967.2333,-842.8524 961.2333,-842.8524 961.2333,-842.8524 914.0411,-842.8524 914.0411,-842.8524 908.0411,-842.8524 902.0411,-836.8524 902.0411,-830.8524 902.0411,-830.8524 902.0411,-818.8524 902.0411,-818.8524 902.0411,-812.8524 908.0411,-806.8524 914.0411,-806.8524"/>
<text text-anchor="middle" x="937.6372" y="-820.7524" font-family="Times,serif" font-size="14.00" fill="#000000">info[user]</text>
</g>
<!-- admin&#45;&gt;info[user] -->
<g id="edge7" class="edge">
<title>admin-&gt;info[user]</title>
<path fill="none" stroke="#000000" d="M52.2922,-453.0796C54.9746,-531.5169 67.2761,-837.7017 96.709,-867.8524 190.6046,-964.0377 562.5222,-936.2794 696.6658,-944.8524 774.6025,-949.8333 805.2522,-984.7603 872.3812,-944.8524 889.8385,-934.4741 913.1475,-884.2652 926.6631,-852.1703"/>
<polygon fill="#000000" stroke="#000000" points="929.9282,-853.4335 930.5258,-842.8555 923.4621,-850.752 929.9282,-853.4335"/>
<text text-anchor="middle" x="514.7236" y="-946.0524" font-family="Times,serif" font-size="14.00" fill="#000000">show info / func21 [func4]</text>
</g>
<!-- list[admin] -->
<g id="node7" class="node">
<title>list[admin]</title>
<path fill="none" stroke="#000000" d="M324.9707,-200.8524C324.9707,-200.8524 378.4041,-200.8524 378.4041,-200.8524 384.4041,-200.8524 390.4041,-206.8524 390.4041,-212.8524 390.4041,-212.8524 390.4041,-224.8524 390.4041,-224.8524 390.4041,-230.8524 384.4041,-236.8524 378.4041,-236.8524 378.4041,-236.8524 324.9707,-236.8524 324.9707,-236.8524 318.9707,-236.8524 312.9707,-230.8524 312.9707,-224.8524 312.9707,-224.8524 312.9707,-212.8524 312.9707,-212.8524 312.9707,-206.8524 318.9707,-200.8524 324.9707,-200.8524"/>
<text text-anchor="middle" x="351.6874" y="-214.7524" font-family="Times,serif" font-size="14.00" fill="#000000">list[admin]</text>
</g>
<!-- admin&#45;&gt;list[admin] -->
<g id="edge5" class="edge">
<title>admin-&gt;list[admin]</title>
<path fill="none" stroke="#000000" d="M53.0818,-416.7129C56.8655,-372.0445 69.0516,-258.6502 96.709,-235.0524 126.6167,-209.5346 237.3634,-211.5887 302.6552,-215.2658"/>
<polygon fill="#000000" stroke="#000000" points="302.534,-218.7647 312.7246,-215.8659 302.9505,-211.7771 302.534,-218.7647"/>
<text text-anchor="middle" x="188.6512" y="-239.0524" font-family="Times,serif" font-size="14.00" fill="#000000">list instances / func31 [func3]</text>
</g>
<!-- list[user] -->
<g id="node8" class="node">
<title>list[user]</title>
<path fill="none" stroke="#000000" d="M916.7585,-689.8524C916.7585,-689.8524 958.5159,-689.8524 958.5159,-689.8524 964.5159,-689.8524 970.5159,-695.8524 970.5159,-701.8524 970.5159,-701.8524 970.5159,-713.8524 970.5159,-713.8524 970.5159,-719.8524 964.5159,-725.8524 958.5159,-725.8524 958.5159,-725.8524 916.7585,-725.8524 916.7585,-725.8524 910.7585,-725.8524 904.7585,-719.8524 904.7585,-713.8524 904.7585,-713.8524 904.7585,-701.8524 904.7585,-701.8524 904.7585,-695.8524 910.7585,-689.8524 916.7585,-689.8524"/>
<text text-anchor="middle" x="937.6372" y="-703.7524" font-family="Times,serif" font-size="14.00" fill="#000000">list[user]</text>
</g>
<!-- admin&#45;&gt;list[user] -->
<g id="edge4" class="edge">
<title>admin-&gt;list[user]</title>
<path fill="none" stroke="#000000" d="M53.1596,-453.2606C58.2646,-515.8597 76.2025,-717.7478 96.709,-737.8524 192.6923,-831.9545 562.5222,-806.2794 696.6658,-814.8524 774.6025,-819.8333 804.2837,-853.0843 872.3812,-814.8524 888.0634,-806.0479 910.7035,-763.9959 924.7759,-735.3071"/>
<polygon fill="#000000" stroke="#000000" points="927.9976,-736.6842 929.1973,-726.1575 921.6949,-733.6385 927.9976,-736.6842"/>
<text text-anchor="middle" x="514.7236" y="-816.0524" font-family="Times,serif" font-size="14.00" fill="#000000">list instances / func18 [func2]</text>
</g>
<!-- stop[admin] -->
<g id="node9" class="node">
<title>stop[admin]</title>
<path fill="none" stroke="#000000" d="M321.8613,-112.8524C321.8613,-112.8524 381.5135,-112.8524 381.5135,-112.8524 387.5135,-112.8524 393.5135,-118.8524 393.5135,-124.8524 393.5135,-124.8524 393.5135,-136.8524 393.5135,-136.8524 393.5135,-142.8524 387.5135,-148.8524 381.5135,-148.8524 381.5135,-148.8524 321.8613,-148.8524 321.8613,-148.8524 315.8613,-148.8524 309.8613,-142.8524 309.8613,-136.8524 309.8613,-136.8524 309.8613,-124.8524 309.8613,-124.8524 309.8613,-118.8524 315.8613,-112.8524 321.8613,-112.8524"/>
<text text-anchor="middle" x="351.6874" y="-126.7524" font-family="Times,serif" font-size="14.00" fill="#000000">stop[admin]</text>
</g>
<!-- admin&#45;&gt;stop[admin] -->
<g id="edge12" class="edge">
<title>admin-&gt;stop[admin]</title>
<path fill="none" stroke="#000000" d="M53.3709,-416.7355C58.9375,-357.9141 77.6516,-175.0317 96.709,-157.0524 111.1513,-143.4271 229.3837,-136.0658 299.6704,-132.8568"/>
<polygon fill="#000000" stroke="#000000" points="299.8395,-136.3528 309.6747,-132.4132 299.5294,-129.3597 299.8395,-136.3528"/>
<text text-anchor="middle" x="188.6512" y="-161.0524" font-family="Times,serif" font-size="14.00" fill="#000000">stop instances / func33 [func7]</text>
</g>
<!-- stop[user] -->
<g id="node10" class="node">
<title>stop[user]</title>
<path fill="none" stroke="#000000" d="M913.6491,-517.8524C913.6491,-517.8524 961.6253,-517.8524 961.6253,-517.8524 967.6253,-517.8524 973.6253,-523.8524 973.6253,-529.8524 973.6253,-529.8524 973.6253,-541.8524 973.6253,-541.8524 973.6253,-547.8524 967.6253,-553.8524 961.6253,-553.8524 961.6253,-553.8524 913.6491,-553.8524 913.6491,-553.8524 907.6491,-553.8524 901.6491,-547.8524 901.6491,-541.8524 901.6491,-541.8524 901.6491,-529.8524 901.6491,-529.8524 901.6491,-523.8524 907.6491,-517.8524 913.6491,-517.8524"/>
<text text-anchor="middle" x="937.6372" y="-531.7524" font-family="Times,serif" font-size="14.00" fill="#000000">stop[user]</text>
</g>
<!-- admin&#45;&gt;stop[user] -->
<g id="edge11" class="edge">
<title>admin-&gt;stop[user]</title>
<path fill="none" stroke="#000000" d="M61.9317,-453.0283C69.7538,-464.986 81.7336,-479.7019 96.709,-486.8524 252.3457,-561.1663 702.8935,-480.9266 872.3812,-512.8524 878.7336,-514.049 885.2988,-515.7588 891.7066,-517.7132"/>
<polygon fill="#000000" stroke="#000000" points="891.0008,-521.1647 901.5934,-520.9471 893.177,-514.5116 891.0008,-521.1647"/>
<text text-anchor="middle" x="514.7236" y="-522.0524" font-family="Times,serif" font-size="14.00" fill="#000000">stop instances / func24 [func6]</text>
</g>
<!-- userinfo[admin] -->
<g id="node12" class="node">
<title>userinfo[admin]</title>
<path fill="none" stroke="#000000" d="M310.5934,-32.8524C310.5934,-32.8524 392.7814,-32.8524 392.7814,-32.8524 398.7814,-32.8524 404.7814,-38.8524 404.7814,-44.8524 404.7814,-44.8524 404.7814,-56.8524 404.7814,-56.8524 404.7814,-62.8524 398.7814,-68.8524 392.7814,-68.8524 392.7814,-68.8524 310.5934,-68.8524 310.5934,-68.8524 304.5934,-68.8524 298.5934,-62.8524 298.5934,-56.8524 298.5934,-56.8524 298.5934,-44.8524 298.5934,-44.8524 298.5934,-38.8524 304.5934,-32.8524 310.5934,-32.8524"/>
<text text-anchor="middle" x="351.6874" y="-46.7524" font-family="Times,serif" font-size="14.00" fill="#000000">userinfo[admin]</text>
</g>
<!-- admin&#45;&gt;userinfo[admin] -->
<g id="edge10" class="edge">
<title>admin-&gt;userinfo[admin]</title>
<path fill="none" stroke="#000000" d="M52.7076,-416.678C56.6833,-347.4618 72.361,-103.0221 96.709,-79.0524 122.9189,-53.2497 221.443,-49.0032 288.0613,-49.2383"/>
<polygon fill="#000000" stroke="#000000" points="288.4387,-52.7409 298.4632,-49.3119 288.4883,-45.7411 288.4387,-52.7409"/>
<text text-anchor="middle" x="188.6512" y="-84.0524" font-family="Times,serif" font-size="14.00" fill="#000000">show user info / func35 [func11]</text>
</g>
<!-- userinfo[user] -->
<g id="node13" class="node">
<title>userinfo[user]</title>
<path fill="none" stroke="#000000" d="M902.3812,-407.8524C902.3812,-407.8524 972.8932,-407.8524 972.8932,-407.8524 978.8932,-407.8524 984.8932,-413.8524 984.8932,-419.8524 984.8932,-419.8524 984.8932,-431.8524 984.8932,-431.8524 984.8932,-437.8524 978.8932,-443.8524 972.8932,-443.8524 972.8932,-443.8524 902.3812,-443.8524 902.3812,-443.8524 896.3812,-443.8524 890.3812,-437.8524 890.3812,-431.8524 890.3812,-431.8524 890.3812,-419.8524 890.3812,-419.8524 890.3812,-413.8524 896.3812,-407.8524 902.3812,-407.8524"/>
<text text-anchor="middle" x="937.6372" y="-421.7524" font-family="Times,serif" font-size="14.00" fill="#000000">userinfo[user]</text>
</g>
<!-- admin&#45;&gt;userinfo[user] -->
<g id="edge9" class="edge">
<title>admin-&gt;userinfo[user]</title>
<path fill="none" stroke="#000000" d="M78.8407,-434.9274C121.6969,-435.0022 207.6842,-434.9753 280.5934,-433.8524 465.5571,-431.0037 511.6963,-425.2971 696.6658,-422.8524 774.7547,-421.8203 794.3061,-421.0587 872.3812,-422.8524 874.911,-422.9105 877.4956,-422.9813 880.1061,-423.0621"/>
<polygon fill="#000000" stroke="#000000" points="880.1264,-426.5649 890.243,-423.4177 880.3719,-419.5692 880.1264,-426.5649"/>
<text text-anchor="middle" x="514.7236" y="-434.0524" font-family="Times,serif" font-size="14.00" fill="#000000">show user info / func30 [func10]</text>
</g>
<!-- config&#45;&gt;admin -->
<g id="edge14" class="edge">
<title>config-&gt;admin</title>
<path fill="none" stroke="#000000" d="M324.46,-588.1975C315.8253,-583.938 306.4803,-578.7098 298.5934,-572.8524 289.3065,-565.9553 290.87,-559.3633 280.5934,-554.0524 207.1994,-516.1227 163.3981,-575.6163 96.709,-526.8524 75.7404,-511.5199 64.0492,-483.7253 57.8754,-462.6856"/>
<polygon fill="#000000" stroke="#000000" points="61.2441,-461.7347 55.2714,-452.9839 54.4834,-463.5494 61.2441,-461.7347"/>
<text text-anchor="middle" x="188.6512" y="-558.0524" font-family="Times,serif" font-size="14.00" fill="#000000">return to original state [func14]</text>
</g>
<!-- user -->
<g id="node11" class="node">
<title>user</title>
<path fill="none" stroke="#000000" d="M636.6658,-621.8524C636.6658,-621.8524 666.6658,-621.8524 666.6658,-621.8524 672.6658,-621.8524 678.6658,-627.8524 678.6658,-633.8524 678.6658,-633.8524 678.6658,-645.8524 678.6658,-645.8524 678.6658,-651.8524 672.6658,-657.8524 666.6658,-657.8524 666.6658,-657.8524 636.6658,-657.8524 636.6658,-657.8524 630.6658,-657.8524 624.6658,-651.8524 624.6658,-645.8524 624.6658,-645.8524 624.6658,-633.8524 624.6658,-633.8524 624.6658,-627.8524 630.6658,-621.8524 636.6658,-621.8524"/>
<text text-anchor="middle" x="651.6658" y="-635.7524" font-family="Times,serif" font-size="14.00" fill="#000000">user</text>
</g>
<!-- config&#45;&gt;user -->
<g id="edge13" class="edge">
<title>config-&gt;user</title>
<path fill="none" stroke="#000000" d="M378.8243,-607.756C391.9931,-611.3255 408.1043,-615.3043 422.7814,-617.8524 489.7393,-629.4772 568.8611,-635.3699 614.3587,-638.0135"/>
<polygon fill="#000000" stroke="#000000" points="614.177,-641.5087 624.3571,-638.5733 614.5684,-634.5196 614.177,-641.5087"/>
<text text-anchor="middle" x="514.7236" y="-641.0524" font-family="Times,serif" font-size="14.00" fill="#000000">return to original state [func13]</text>
</g>
<!-- create[admin]&#45;&gt;admin -->
<g id="edge15" class="edge">
<title>create[admin]-&gt;admin</title>
<path fill="none" stroke="#000000" d="M304.7446,-343.7835C240.8049,-336.4753 130.4215,-327.5564 96.709,-348.0524 75.7399,-360.8009 64.103,-386.8337 57.9456,-407.0804"/>
<polygon fill="#000000" stroke="#000000" points="54.5621,-406.1842 55.2753,-416.755 61.3098,-408.0466 54.5621,-406.1842"/>
<text text-anchor="middle" x="188.6512" y="-352.0524" font-family="Times,serif" font-size="14.00" fill="#000000">return to original state</text>
</g>
<!-- create[user]&#45;&gt;admin -->
<g id="edge17" class="edge">
<title>create[user]-&gt;admin</title>
<path fill="none" stroke="#000000" d="M896.3957,-964.3404C888.4671,-965.8026 880.1985,-967.0813 872.3812,-967.8524 794.6626,-975.5184 774.7568,-968.7077 696.6658,-967.8524 562.791,-966.3862 187.1525,-1011.567 96.709,-912.8524 66.2447,-879.6022 55.1286,-560.9812 52.4191,-463.2271"/>
<polygon fill="#000000" stroke="#000000" points="55.91,-462.8404 52.1426,-452.938 48.9125,-463.0284 55.91,-462.8404"/>
<text text-anchor="middle" x="514.7236" y="-980.0524" font-family="Times,serif" font-size="14.00" fill="#000000">return to original state [func26]</text>
</g>
<!-- create[user]&#45;&gt;user -->
<g id="edge16" class="edge">
<title>create[user]-&gt;user</title>
<path fill="none" stroke="#000000" d="M924.3372,-936.6575C912.3602,-921.5326 893.4407,-900.5348 872.3812,-888.0524 802.616,-846.7013 752.5421,-897.6311 696.6658,-838.8524 673.5234,-814.508 659.9726,-717.0131 654.5033,-668.1155"/>
<polygon fill="#000000" stroke="#000000" points="657.9544,-667.4738 653.4004,-657.9076 650.9949,-668.2258 657.9544,-667.4738"/>
<text text-anchor="middle" x="784.5235" y="-892.0524" font-family="Times,serif" font-size="14.00" fill="#000000">return to original state [func25]</text>
</g>
<!-- info[admin]&#45;&gt;admin -->
<g id="edge18" class="edge">
<title>info[admin]-&gt;admin</title>
<path fill="none" stroke="#000000" d="M310.2469,-273.3559C300.59,-271.1532 290.2934,-269.1829 280.5934,-268.0524 240.0049,-263.3219 129.1492,-243.2042 96.709,-268.0524 74.8129,-284.8241 61.1524,-363.5864 55.1953,-406.6132"/>
<polygon fill="#000000" stroke="#000000" points="51.6998,-406.3478 53.8465,-416.7229 58.6383,-407.2736 51.6998,-406.3478"/>
<text text-anchor="middle" x="188.6512" y="-272.0524" font-family="Times,serif" font-size="14.00" fill="#000000">return to original state</text>
</g>
<!-- info[user]&#45;&gt;admin -->
<g id="edge20" class="edge">
<title>info[user]-&gt;admin</title>
<path fill="none" stroke="#000000" d="M901.9255,-833.282C892.3832,-835.1728 882.0378,-836.8999 872.3812,-837.8524 794.6626,-845.5184 774.7568,-838.7077 696.6658,-837.8524 562.7706,-836.3859 188.8849,-878.9795 96.709,-781.8524 74.8426,-758.8114 58.6677,-541.7801 53.481,-463.1351"/>
<polygon fill="#000000" stroke="#000000" points="56.963,-462.7433 52.8226,-452.991 49.9777,-463.1967 56.963,-462.7433"/>
<text text-anchor="middle" x="514.7236" y="-849.0524" font-family="Times,serif" font-size="14.00" fill="#000000">return to original state [func20]</text>
</g>
<!-- info[user]&#45;&gt;user -->
<g id="edge19" class="edge">
<title>info[user]-&gt;user</title>
<path fill="none" stroke="#000000" d="M924.656,-806.8172C912.7448,-791.5813 893.7453,-770.3346 872.3812,-758.0524 802.5675,-717.9164 761.4764,-761.6482 696.6658,-713.8524 680.832,-702.1754 669.4283,-683.1037 662.0625,-667.2467"/>
<polygon fill="#000000" stroke="#000000" points="665.1896,-665.6607 657.9946,-657.8837 658.7694,-668.4501 665.1896,-665.6607"/>
<text text-anchor="middle" x="784.5235" y="-762.0524" font-family="Times,serif" font-size="14.00" fill="#000000">return to original state [func19]</text>
</g>
<!-- list[admin]&#45;&gt;admin -->
<g id="edge21" class="edge">
<title>list[admin]-&gt;admin</title>
<path fill="none" stroke="#000000" d="M312.9236,-201.3661C302.624,-197.5223 291.3642,-194.0151 280.5934,-192.0524 240.3922,-184.7268 128.1263,-165.9228 96.709,-192.0524 64.2731,-219.0291 55.1132,-348.0375 52.6115,-406.2464"/>
<polygon fill="#000000" stroke="#000000" points="49.1012,-406.4429 52.2063,-416.5725 56.0958,-406.7174 49.1012,-406.4429"/>
<text text-anchor="middle" x="188.6512" y="-196.0524" font-family="Times,serif" font-size="14.00" fill="#000000">return to original state</text>
</g>
<!-- list[user]&#45;&gt;admin -->
<g id="edge23" class="edge">
<title>list[user]-&gt;admin</title>
<path fill="none" stroke="#000000" d="M904.4023,-710.0634C763.5213,-718.6998 217.3367,-744.5229 96.709,-634.8524 71.6235,-612.0455 58.9524,-512.4124 54.1115,-462.9364"/>
<polygon fill="#000000" stroke="#000000" points="57.5894,-462.5351 53.1706,-452.9057 50.62,-463.1889 57.5894,-462.5351"/>
<text text-anchor="middle" x="514.7236" y="-723.0524" font-family="Times,serif" font-size="14.00" fill="#000000">return to original state [func17]</text>
</g>
<!-- list[user]&#45;&gt;user -->
<g id="edge22" class="edge">
<title>list[user]-&gt;user</title>
<path fill="none" stroke="#000000" d="M922.206,-689.8235C910.0929,-677.0638 892.0344,-660.8823 872.3812,-653.0524 811.7998,-628.9165 734.4272,-631.0009 689.2263,-635.1346"/>
<polygon fill="#000000" stroke="#000000" points="688.6033,-631.6793 679.0007,-636.1559 689.299,-638.6447 688.6033,-631.6793"/>
<text text-anchor="middle" x="784.5235" y="-657.0524" font-family="Times,serif" font-size="14.00" fill="#000000">return to original state [func16]</text>
</g>
<!-- stop[admin]&#45;&gt;admin -->
<g id="edge24" class="edge">
<title>stop[admin]-&gt;admin</title>
<path fill="none" stroke="#000000" d="M309.5277,-118.4916C300.0881,-116.2313 290.0645,-114.22 280.5934,-113.0524 240.0372,-108.0525 127.5396,-86.2331 96.709,-113.0524 74.6509,-132.2405 58.8086,-331.3725 53.5798,-406.4345"/>
<polygon fill="#000000" stroke="#000000" points="50.077,-406.3571 52.8859,-416.5728 57.0607,-406.8351 50.077,-406.3571"/>
<text text-anchor="middle" x="188.6512" y="-117.0524" font-family="Times,serif" font-size="14.00" fill="#000000">return to original state</text>
</g>
<!-- stop[user]&#45;&gt;admin -->
<g id="edge26" class="edge">
<title>stop[user]-&gt;admin</title>
<path fill="none" stroke="#000000" d="M910.1681,-517.7674C898.9155,-511.2703 885.4767,-504.6218 872.3812,-500.8524 540.3164,-405.2715 436.9947,-507.922 96.709,-447.8524 94.1864,-447.4071 91.6033,-446.8745 89.0128,-446.283"/>
<polygon fill="#000000" stroke="#000000" points="89.6501,-442.8339 79.0966,-443.7684 87.9295,-449.6191 89.6501,-442.8339"/>
<text text-anchor="middle" x="514.7236" y="-468.0524" font-family="Times,serif" font-size="14.00" fill="#000000">return to original state [func23]</text>
</g>
<!-- stop[user]&#45;&gt;user -->
<g id="edge25" class="edge">
<title>stop[user]-&gt;user</title>
<path fill="none" stroke="#000000" d="M901.495,-544.1456C892.0487,-546.165 881.8576,-548.213 872.3812,-549.8524 794.7607,-563.2807 763.6311,-531.5685 696.6658,-573.0524 681.8886,-582.2066 670.8518,-598.222 663.4072,-612.2764"/>
<polygon fill="#000000" stroke="#000000" points="660.1015,-611.067 658.8253,-621.5847 666.3819,-614.1585 660.1015,-611.067"/>
<text text-anchor="middle" x="784.5235" y="-577.0524" font-family="Times,serif" font-size="14.00" fill="#000000">return to original state [func22]</text>
</g>
<!-- user&#45;&gt;config -->
<g id="edge27" class="edge">
<title>user-&gt;config</title>
<path fill="none" stroke="#000000" d="M638.3978,-621.8508C630.3793,-612.5406 619.281,-602.0936 606.6658,-597.0524 533.9777,-568.0052 440.06,-580.4194 388.9158,-590.8778"/>
<polygon fill="#000000" stroke="#000000" points="388.0256,-587.4888 378.9753,-592.9973 389.4853,-594.335 388.0256,-587.4888"/>
<text text-anchor="middle" x="514.7236" y="-601.0524" font-family="Times,serif" font-size="14.00" fill="#000000">config user info / func15</text>
</g>
<!-- user&#45;&gt;create[user] -->
<g id="edge28" class="edge">
<title>user-&gt;create[user]</title>
<path fill="none" stroke="#000000" d="M652.1672,-657.8703C654.0419,-711.6239 662.4115,-869.3285 696.6658,-904.8524 722.3363,-931.4743 823.4793,-944.9554 886.284,-950.8943"/>
<polygon fill="#000000" stroke="#000000" points="886.1203,-954.3938 896.397,-951.817 886.7564,-947.4228 886.1203,-954.3938"/>
<text text-anchor="middle" x="784.5235" y="-953.0524" font-family="Times,serif" font-size="14.00" fill="#000000">create instances / func27</text>
</g>
<!-- user&#45;&gt;info[user] -->
<g id="edge31" class="edge">
<title>user-&gt;info[user]</title>
<path fill="none" stroke="#000000" d="M655.3739,-657.9912C662.4915,-691.0349 678.9422,-759.0925 696.6658,-774.8524 725.0378,-800.0809 830.1494,-814.3781 891.7798,-820.7629"/>
<polygon fill="#000000" stroke="#000000" points="891.7161,-824.274 902.0161,-821.7921 892.4165,-817.3091 891.7161,-824.274"/>
<text text-anchor="middle" x="784.5235" y="-822.0524" font-family="Times,serif" font-size="14.00" fill="#000000">show info / func21</text>
</g>
<!-- user&#45;&gt;list[user] -->
<g id="edge29" class="edge">
<title>user-&gt;list[user]</title>
<path fill="none" stroke="#000000" d="M674.3769,-657.8977C681.1974,-662.4908 688.9317,-666.9445 696.6658,-669.8524 770.3997,-697.5755 794.8405,-679.1706 872.3812,-693.0524 879.6139,-694.3472 887.2561,-695.9057 894.6639,-697.5184"/>
<polygon fill="#000000" stroke="#000000" points="894.0369,-700.9646 904.5598,-699.7317 895.5648,-694.1334 894.0369,-700.9646"/>
<text text-anchor="middle" x="784.5235" y="-697.0524" font-family="Times,serif" font-size="14.00" fill="#000000">list instances / func18</text>
</g>
<!-- user&#45;&gt;stop[user] -->
<g id="edge33" class="edge">
<title>user-&gt;stop[user]</title>
<path fill="none" stroke="#000000" d="M675.8514,-621.586C682.3177,-617.501 689.5073,-613.6225 696.6658,-611.0524 770.701,-584.472 800.1038,-620.8959 872.3812,-589.8524 887.7506,-583.2511 902.3454,-571.8548 913.8196,-561.2279"/>
<polygon fill="#000000" stroke="#000000" points="916.4763,-563.5278 921.2358,-554.0622 911.6123,-558.4937 916.4763,-563.5278"/>
<text text-anchor="middle" x="784.5235" y="-615.0524" font-family="Times,serif" font-size="14.00" fill="#000000">stop instances / func24</text>
</g>
<!-- user&#45;&gt;user -->
<g id="edge30" class="edge">
<title>user-&gt;user</title>
<path fill="none" stroke="#000000" d="M627.937,-657.8811C623.9046,-667.5467 631.8142,-676.3524 651.6658,-676.3524 664.073,-676.3524 671.8154,-672.9127 674.893,-667.9731"/>
<polygon fill="#000000" stroke="#000000" points="678.3938,-668.0425 675.3946,-657.8811 671.4024,-667.695 678.3938,-668.0425"/>
<text text-anchor="middle" x="651.6658" y="-680.5524" font-family="Times,serif" font-size="14.00" fill="#000000">show fsm diagram</text>
</g>
<!-- user&#45;&gt;userinfo[user] -->
<g id="edge32" class="edge">
<title>user-&gt;userinfo[user]</title>
<path fill="none" stroke="#000000" d="M654.4371,-621.627C659.0427,-597.3647 670.5001,-554.5596 696.6658,-529.0524 756.424,-470.7981 796.8067,-498.2515 872.3812,-462.8524 881.222,-458.7114 890.4805,-453.823 899.154,-448.9801"/>
<polygon fill="#000000" stroke="#000000" points="900.9774,-451.9696 907.939,-443.9829 897.5163,-445.8851 900.9774,-451.9696"/>
<text text-anchor="middle" x="784.5235" y="-533.0524" font-family="Times,serif" font-size="14.00" fill="#000000">show user info / func30</text>
</g>
<!-- userinfo[admin]&#45;&gt;admin -->
<g id="edge34" class="edge">
<title>userinfo[admin]-&gt;admin</title>
<path fill="none" stroke="#000000" d="M314.7379,-32.7229C259.8444,-8.7054 156.7887,24.7332 96.709,-29.0524 68.5719,-54.2418 56.0962,-318.7119 52.7057,-406.6203"/>
<polygon fill="#000000" stroke="#000000" points="49.2062,-406.544 52.3284,-416.6684 56.2013,-406.8068 49.2062,-406.544"/>
<text text-anchor="middle" x="188.6512" y="-34.0524" font-family="Times,serif" font-size="14.00" fill="#000000">return to original state</text>
</g>
<!-- userinfo[user]&#45;&gt;admin -->
<g id="edge36" class="edge">
<title>userinfo[user]-&gt;admin</title>
<path fill="none" stroke="#000000" d="M890.2893,-418.8401C884.2707,-418.0907 878.1878,-417.4026 872.3812,-416.8524 754.6536,-405.6973 724.8809,-406.1201 606.6658,-403.0524 524.9669,-400.9323 504.4332,-399.5601 422.7814,-403.0524 300.4501,-408.2845 156.0542,-423.1767 89.1755,-430.5744"/>
<polygon fill="#000000" stroke="#000000" points="88.6735,-427.1085 79.1227,-431.6947 89.4489,-434.0655 88.6735,-427.1085"/>
<text text-anchor="middle" x="514.7236" y="-407.0524" font-family="Times,serif" font-size="14.00" fill="#000000">return to original state [func29]</text>
</g>
<!-- userinfo[user]&#45;&gt;user -->
<g id="edge35" class="edge">
<title>userinfo[user]-&gt;user</title>
<path fill="none" stroke="#000000" d="M890.2294,-422.6006C828.3884,-419.4176 724.7571,-418.0477 696.6658,-442.0524 671.2232,-463.7936 658.7557,-562.2728 654.0207,-611.5663"/>
<polygon fill="#000000" stroke="#000000" points="650.531,-611.2946 653.1012,-621.5729 657.5017,-611.9351 650.531,-611.2946"/>
<text text-anchor="middle" x="784.5235" y="-446.0524" font-family="Times,serif" font-size="14.00" fill="#000000">return to original state [func28]</text>
</g>
<!-- init -->
<g id="node14" class="node">
<title>init</title>
<ellipse fill="#000000" stroke="#000000" cx="351.6874" cy="-561.8524" rx="1.8" ry="1.8"/>
</g>
<!-- init&#45;&gt;user -->
<g id="edge37" class="edge">
<title>init-&gt;user</title>
<path fill="none" stroke="#000000" d="M353.4605,-561.4048C370.9329,-557.0966 513.6192,-524.2432 606.6658,-575.8524 621.3351,-583.9889 632.3237,-599.1697 639.7689,-612.7046"/>
<polygon fill="#000000" stroke="#000000" points="636.6979,-614.3867 644.3589,-621.7051 642.9338,-611.2065 636.6979,-614.3867"/>
</g>
</g>
</svg>