<?xml version="1.0" encoding="UTF-8" standalone="no"?><!DOCTYPE svg PUBLIC "-//W3C//DTD SVG 1.1//EN" "http://www.w3.org/Graphics/SVG/1.1/DTD/svg11.dtd"><!-- Generated by graphviz version 2.40.1 (20161225.0304)
 --><!-- Title: %0 Pages: 1 --><svg xmlns="http://www.w3.org/2000/svg" xmlns:xlink="http://www.w3.org/1999/xlink" width="941pt" height="896pt" viewBox="0.00 0.00 940.86 896.21">
<g id="graph0" class="graph" transform="scale(1 1) rotate(0) translate(4 892.2084)">
<title>%0</title>
<polygon fill="#ffffff" stroke="transparent" points="-4,4 -4,-892.2084 936.8646,-892.2084 936.8646,4 -4,4"/>
<!-- admin -->
<g id="node1" class="node">
<title>admin</title>
<path fill="none" stroke="#000000" d="M12,-335.4084C12,-335.4084 42,-335.4084 42,-335.4084 48,-335.4084 54,-341.4084 54,-347.4084 54,-347.4084 54,-359.4084 54,-359.4084 54,-365.4084 48,-371.4084 42,-371.4084 42,-371.4084 12,-371.4084 12,-371.4084 6,-371.4084 0,-365.4084 0,-359.4084 0,-359.4084 0,-347.4084 0,-347.4084 0,-341.4084 6,-335.4084 12,-335.4084"/>
<text text-anchor="middle" x="27" y="-349.3084" font-family="Times,serif" font-size="14.00" fill="#000000">admin</text>
</g>
<!-- config -->
<g id="node2" class="node">
<title>config</title>
<path fill="none" stroke="#000000" d="M304.5493,-496.4084C304.5493,-496.4084 334.5493,-496.4084 334.5493,-496.4084 340.5493,-496.4084 346.5493,-502.4084 346.5493,-508.4084 346.5493,-508.4084 346.5493,-520.4084 346.5493,-520.4084 346.5493,-526.4084 340.5493,-532.4084 334.5493,-532.4084 334.5493,-532.4084 304.5493,-532.4084 304.5493,-532.4084 298.5493,-532.4084 292.5493,-526.4084 292.5493,-520.4084 292.5493,-520.4084 292.5493,-508.4084 292.5493,-508.4084 292.5493,-502.4084 298.5493,-496.4084 304.5493,-496.4084"/>
<text text-anchor="middle" x="319.5493" y="-510.3084" font-family="Times,serif" font-size="14.00" fill="#000000">config</text>
</g>
<!-- admin&#45;&gt;config -->
<g id="edge1" class="edge">
<title>admin-&gt;config</title>
<path fill="none" stroke="#000000" d="M29.6406,-371.7262C34.0349,-394.9875 45.1884,-434.4882 72,-454.4084 137.6978,-503.2197 177.0257,-451.7699 254.686,-477.6084 264.8336,-480.9846 275.1857,-486.0133 284.5538,-491.2767"/>
<polygon fill="#000000" stroke="#000000" points="282.7994,-494.3053 293.1954,-496.3486 286.3427,-488.2683 282.7994,-494.3053"/>
<text text-anchor="middle" x="163.343" y="-481.6084" font-family="Times,serif" font-size="14.00" fill="#000000">config user info / func11</text>
</g>
<!-- create[admin] -->
<g id="node3" class="node">
<title>create[admin]</title>
<path fill="none" stroke="#000000" d="M284.686,-253.4084C284.686,-253.4084 354.4126,-253.4084 354.4126,-253.4084 360.4126,-253.4084 366.4126,-259.4084 366.4126,-265.4084 366.4126,-265.4084 366.4126,-277.4084 366.4126,-277.4084 366.4126,-283.4084 360.4126,-289.4084 354.4126,-289.4084 354.4126,-289.4084 284.686,-289.4084 284.686,-289.4084 278.686,-289.4084 272.686,-283.4084 272.686,-277.4084 272.686,-277.4084 272.686,-265.4084 272.686,-265.4084 272.686,-259.4084 278.686,-253.4084 284.686,-253.4084"/>
<text text-anchor="middle" x="319.5493" y="-267.3084" font-family="Times,serif" font-size="14.00" fill="#000000">create[admin]</text>
</g>
<!-- admin&#45;&gt;create[admin] -->
<g id="edge3" class="edge">
<title>admin-&gt;create[admin]</title>
<path fill="none" stroke="#000000" d="M41.3141,-335.1426C49.3407,-326.2356 60.1178,-316.2507 72,-310.6084 145.9336,-275.5004 174.2229,-302.3897 254.686,-287.4084 257.3211,-286.9177 260.0089,-286.3853 262.7186,-285.8226"/>
<polygon fill="#000000" stroke="#000000" points="263.5462,-289.2245 272.5704,-283.6734 262.0542,-282.3853 263.5462,-289.2245"/>
<text text-anchor="middle" x="163.343" y="-314.6084" font-family="Times,serif" font-size="14.00" fill="#000000">create instances / func27 [func8]</text>
</g>
<!-- create[user] -->
<g id="node4" class="node">
<title>create[user]</title>
<path fill="none" stroke="#000000" d="M862.814,-746.4084C862.814,-746.4084 920.8646,-746.4084 920.8646,-746.4084 926.8646,-746.4084 932.8646,-752.4084 932.8646,-758.4084 932.8646,-758.4084 932.8646,-770.4084 932.8646,-770.4084 932.8646,-776.4084 926.8646,-782.4084 920.8646,-782.4084 920.8646,-782.4084 862.814,-782.4084 862.814,-782.4084 856.814,-782.4084 850.814,-776.4084 850.814,-770.4084 850.814,-770.4084 850.814,-758.4084 850.814,-758.4084 850.814,-752.4084 856.814,-746.4084 862.814,-746.4084"/>
<text text-anchor="middle" x="891.8393" y="-760.3084" font-family="Times,serif" font-size="14.00" fill="#000000">create[user]</text>
</g>
<!-- admin&#45;&gt;create[user] -->
<g id="edge2" class="edge">
<title>admin-&gt;create[user]</title>
<path fill="none" stroke="#000000" d="M27.4016,-371.5106C29.3761,-452.3179 39.317,-777.4216 72,-807.4084 196.5786,-921.7096 672.4511,-860.9652 832.814,-807.4084 844.5332,-803.4945 855.8835,-796.3291 865.4476,-788.955"/>
<polygon fill="#000000" stroke="#000000" points="867.8243,-791.533 873.3569,-782.4974 863.3972,-786.1106 867.8243,-791.533"/>
<text text-anchor="middle" x="475.7556" y="-875.6084" font-family="Times,serif" font-size="14.00" fill="#000000">create instances / func23 [func7]</text>
</g>
<!-- info[admin] -->
<g id="node5" class="node">
<title>info[admin]</title>
<path fill="none" stroke="#000000" d="M290.1152,-187.4084C290.1152,-187.4084 348.9834,-187.4084 348.9834,-187.4084 354.9834,-187.4084 360.9834,-193.4084 360.9834,-199.4084 360.9834,-199.4084 360.9834,-211.4084 360.9834,-211.4084 360.9834,-217.4084 354.9834,-223.4084 348.9834,-223.4084 348.9834,-223.4084 290.1152,-223.4084 290.1152,-223.4084 284.1152,-223.4084 278.1152,-217.4084 278.1152,-211.4084 278.1152,-211.4084 278.1152,-199.4084 278.1152,-199.4084 278.1152,-193.4084 284.1152,-187.4084 290.1152,-187.4084"/>
<text text-anchor="middle" x="319.5493" y="-201.3084" font-family="Times,serif" font-size="14.00" fill="#000000">info[admin]</text>
</g>
<!-- admin&#45;&gt;info[admin] -->
<g id="edge7" class="edge">
<title>admin-&gt;info[admin]</title>
<path fill="none" stroke="#000000" d="M28.1142,-335.3993C30.8231,-308.5372 40.1169,-258.4785 72,-233.6084 87.1053,-221.8256 199.8519,-212.846 267.8677,-208.4325"/>
<polygon fill="#000000" stroke="#000000" points="268.2122,-211.9177 277.9695,-207.7891 267.7672,-204.9319 268.2122,-211.9177"/>
<text text-anchor="middle" x="163.343" y="-237.6084" font-family="Times,serif" font-size="14.00" fill="#000000">show info / func25 [func4]</text>
</g>
<!-- info[user] -->
<g id="node6" class="node">
<title>info[user]</title>
<path fill="none" stroke="#000000" d="M868.2432,-629.4084C868.2432,-629.4084 915.4354,-629.4084 915.4354,-629.4084 921.4354,-629.4084 927.4354,-635.4084 927.4354,-641.4084 927.4354,-641.4084 927.4354,-653.4084 927.4354,-653.4084 927.4354,-659.4084 921.4354,-665.4084 915.4354,-665.4084 915.4354,-665.4084 868.2432,-665.4084 868.2432,-665.4084 862.2432,-665.4084 856.2432,-659.4084 856.2432,-653.4084 856.2432,-653.4084 856.2432,-641.4084 856.2432,-641.4084 856.2432,-635.4084 862.2432,-629.4084 868.2432,-629.4084"/>
<text text-anchor="middle" x="891.8393" y="-643.3084" font-family="Times,serif" font-size="14.00" fill="#000000">info[user]</text>
</g>
<!-- admin&#45;&gt;info[user] -->
<g id="edge6" class="edge">
<title>admin-&gt;info[user]</title>
<path fill="none" stroke="#000000" d="M28.6567,-371.4628C33.0562,-415.387 46.4778,-526.0805 72,-551.4084 181.7506,-660.3232 689.0058,-653.8335 845.641,-649.1081"/>
<polygon fill="#000000" stroke="#000000" points="845.9885,-652.599 855.8736,-648.7866 845.7686,-645.6024 845.9885,-652.599"/>
<text text-anchor="middle" x="475.7556" y="-652.6084" font-family="Times,serif" font-size="14.00" fill="#000000">show info / func17 [func3]</text>
</g>
<!-- list[admin] -->
<g id="node7" class="node">
<title>list[admin]</title>
<path fill="none" stroke="#000000" d="M292.8326,-119.4084C292.8326,-119.4084 346.266,-119.4084 346.266,-119.4084 352.266,-119.4084 358.266,-125.4084 358.266,-131.4084 358.266,-131.4084 358.266,-143.4084 358.266,-143.4084 358.266,-149.4084 352.266,-155.4084 346.266,-155.4084 346.266,-155.4084 292.8326,-155.4084 292.8326,-155.4084 286.8326,-155.4084 280.8326,-149.4084 280.8326,-143.4084 280.8326,-143.4084 280.8326,-131.4084 280.8326,-131.4084 280.8326,-125.4084 286.8326,-119.4084 292.8326,-119.4084"/>
<text text-anchor="middle" x="319.5493" y="-133.3084" font-family="Times,serif" font-size="14.00" fill="#000000">list[admin]</text>
</g>
<!-- admin&#45;&gt;list[admin] -->
<g id="edge5" class="edge">
<title>admin-&gt;list[admin]</title>
<path fill="none" stroke="#000000" d="M28.4445,-335.1394C32.3598,-290.7285 44.7638,-179.0303 72,-155.6084 100.7452,-130.8888 206.9213,-131.552 270.5087,-134.3834"/>
<polygon fill="#000000" stroke="#000000" points="270.5556,-137.8896 280.7118,-134.8725 270.8908,-130.8976 270.5556,-137.8896"/>
<text text-anchor="middle" x="163.343" y="-159.6084" font-family="Times,serif" font-size="14.00" fill="#000000">list instances / func24 [func2]</text>
</g>
<!-- list[user] -->
<g id="node8" class="node">
<title>list[user]</title>
<path fill="none" stroke="#000000" d="M870.9606,-456.4084C870.9606,-456.4084 912.718,-456.4084 912.718,-456.4084 918.718,-456.4084 924.718,-462.4084 924.718,-468.4084 924.718,-468.4084 924.718,-480.4084 924.718,-480.4084 924.718,-486.4084 918.718,-492.4084 912.718,-492.4084 912.718,-492.4084 870.9606,-492.4084 870.9606,-492.4084 864.9606,-492.4084 858.9606,-486.4084 858.9606,-480.4084 858.9606,-480.4084 858.9606,-468.4084 858.9606,-468.4084 858.9606,-462.4084 864.9606,-456.4084 870.9606,-456.4084"/>
<text text-anchor="middle" x="891.8393" y="-470.3084" font-family="Times,serif" font-size="14.00" fill="#000000">list[user]</text>
</g>
<!-- admin&#45;&gt;list[user] -->
<g id="edge4" class="edge">
<title>admin-&gt;list[user]</title>
<path fill="none" stroke="#000000" d="M54.3551,-363C60.1219,-364.7157 66.2132,-366.3056 72,-367.4084 155.2984,-383.2821 754.0352,-396.0318 832.814,-427.4084 845.3933,-432.4186 857.4374,-441.0455 867.3276,-449.5515"/>
<polygon fill="#000000" stroke="#000000" points="865.0012,-452.1666 874.7667,-456.2759 869.6953,-446.9737 865.0012,-452.1666"/>
<text text-anchor="middle" x="475.7556" y="-401.6084" font-family="Times,serif" font-size="14.00" fill="#000000">list instances / func14 [func1]</text>
</g>
<!-- stop[admin] -->
<g id="node9" class="node">
<title>stop[admin]</title>
<path fill="none" stroke="#000000" d="M289.7232,-31.4084C289.7232,-31.4084 349.3754,-31.4084 349.3754,-31.4084 355.3754,-31.4084 361.3754,-37.4084 361.3754,-43.4084 361.3754,-43.4084 361.3754,-55.4084 361.3754,-55.4084 361.3754,-61.4084 355.3754,-67.4084 349.3754,-67.4084 349.3754,-67.4084 289.7232,-67.4084 289.7232,-67.4084 283.7232,-67.4084 277.7232,-61.4084 277.7232,-55.4084 277.7232,-55.4084 277.7232,-43.4084 277.7232,-43.4084 277.7232,-37.4084 283.7232,-31.4084 289.7232,-31.4084"/>
<text text-anchor="middle" x="319.5493" y="-45.3084" font-family="Times,serif" font-size="14.00" fill="#000000">stop[admin]</text>
</g>
<!-- admin&#45;&gt;stop[admin] -->
<g id="edge9" class="edge">
<title>admin-&gt;stop[admin]</title>
<path fill="none" stroke="#000000" d="M28.6717,-335.3617C34.269,-276.7675 53.0676,-94.586 72,-76.6084 99.175,-50.8039 203.0553,-47.4743 267.2989,-48.0141"/>
<polygon fill="#000000" stroke="#000000" points="267.5988,-51.5178 277.6397,-48.137 267.682,-44.5183 267.5988,-51.5178"/>
<text text-anchor="middle" x="163.343" y="-81.6084" font-family="Times,serif" font-size="14.00" fill="#000000">stop instances / func26 [func6]</text>
</g>
<!-- stop[user] -->
<g id="node10" class="node">
<title>stop[user]</title>
<path fill="none" stroke="#000000" d="M867.8512,-346.4084C867.8512,-346.4084 915.8274,-346.4084 915.8274,-346.4084 921.8274,-346.4084 927.8274,-352.4084 927.8274,-358.4084 927.8274,-358.4084 927.8274,-370.4084 927.8274,-370.4084 927.8274,-376.4084 921.8274,-382.4084 915.8274,-382.4084 915.8274,-382.4084 867.8512,-382.4084 867.8512,-382.4084 861.8512,-382.4084 855.8512,-376.4084 855.8512,-370.4084 855.8512,-370.4084 855.8512,-358.4084 855.8512,-358.4084 855.8512,-352.4084 861.8512,-346.4084 867.8512,-346.4084"/>
<text text-anchor="middle" x="891.8393" y="-360.3084" font-family="Times,serif" font-size="14.00" fill="#000000">stop[user]</text>
</g>
<!-- admin&#45;&gt;stop[user] -->
<g id="edge8" class="edge">
<title>admin-&gt;stop[user]</title>
<path fill="none" stroke="#000000" d="M54.1334,-353.488C156.2505,-353.8353 527.1947,-355.5248 832.814,-362.4084 836.9655,-362.5019 841.2808,-362.6159 845.6041,-362.7415"/>
<polygon fill="#000000" stroke="#000000" points="845.5296,-366.2408 855.633,-363.0516 845.746,-359.2441 845.5296,-366.2408"/>
<text text-anchor="middle" x="475.7556" y="-361.6084" font-family="Times,serif" font-size="14.00" fill="#000000">stop instances / func20 [func5]</text>
</g>
<!-- config&#45;&gt;admin -->
<g id="edge11" class="edge">
<title>config-&gt;admin</title>
<path fill="none" stroke="#000000" d="M292.2484,-521.1014C242.5473,-531.5521 136.4874,-545.6292 72,-494.4084 54.2362,-480.299 39.5692,-418.5757 32.1777,-381.632"/>
<polygon fill="#000000" stroke="#000000" points="35.5493,-380.634 30.2056,-371.4856 28.6779,-381.9697 35.5493,-380.634"/>
<text text-anchor="middle" x="163.343" y="-534.6084" font-family="Times,serif" font-size="14.00" fill="#000000">return to original state [func10]</text>
</g>
<!-- user -->
<g id="node11" class="node">
<title>user</title>
<path fill="none" stroke="#000000" d="M597.0986,-534.4084C597.0986,-534.4084 627.0986,-534.4084 627.0986,-534.4084 633.0986,-534.4084 639.0986,-540.4084 639.0986,-546.4084 639.0986,-546.4084 639.0986,-558.4084 639.0986,-558.4084 639.0986,-564.4084 633.0986,-570.4084 627.0986,-570.4084 627.0986,-570.4084 597.0986,-570.4084 597.0986,-570.4084 591.0986,-570.4084 585.0986,-564.4084 585.0986,-558.4084 585.0986,-558.4084 585.0986,-546.4084 585.0986,-546.4084 585.0986,-540.4084 591.0986,-534.4084 597.0986,-534.4084"/>
<text text-anchor="middle" x="612.0986" y="-548.3084" font-family="Times,serif" font-size="14.00" fill="#000000">user</text>
</g>
<!-- config&#45;&gt;user -->
<g id="edge10" class="edge">
<title>config-&gt;user</title>
<path fill="none" stroke="#000000" d="M346.8217,-522.0721C358.3416,-525.0645 371.9505,-528.2809 384.4126,-530.4084 419.9937,-536.4826 519.85,-545.0234 574.7573,-549.465"/>
<polygon fill="#000000" stroke="#000000" points="574.5359,-552.9584 584.7842,-550.2709 575.0968,-545.9809 574.5359,-552.9584"/>
<text text-anchor="middle" x="475.7556" y="-552.6084" font-family="Times,serif" font-size="14.00" fill="#000000">return to original state [func9]</text>
</g>
<!-- create[admin]&#45;&gt;admin -->
<g id="edge12" class="edge">
<title>create[admin]-&gt;admin</title>
<path fill="none" stroke="#000000" d="M272.6632,-264.6732C210.4014,-256.7058 104.506,-246.8458 72,-266.6084 51.0309,-279.3568 39.394,-305.3896 33.2366,-325.6363"/>
<polygon fill="#000000" stroke="#000000" points="29.8531,-324.7401 30.5663,-335.3109 36.6008,-326.6026 29.8531,-324.7401"/>
<text text-anchor="middle" x="163.343" y="-270.6084" font-family="Times,serif" font-size="14.00" fill="#000000">return to original state</text>
</g>
<!-- create[user]&#45;&gt;admin -->
<g id="edge14" class="edge">
<title>create[user]-&gt;admin</title>
<path fill="none" stroke="#000000" d="M850.7777,-775.4371C844.7913,-776.6678 838.6718,-777.7232 832.814,-778.4084 755.2471,-787.4814 735.1755,-780.1255 657.0986,-778.4084 393.0426,-772.6011 238.2001,-879.6809 72,-674.4084 53.69,-651.7938 35.5929,-456.1918 29.3163,-381.8846"/>
<polygon fill="#000000" stroke="#000000" points="32.7973,-381.5105 28.4774,-371.8364 25.8216,-382.0929 32.7973,-381.5105"/>
<text text-anchor="middle" x="475.7556" y="-802.6084" font-family="Times,serif" font-size="14.00" fill="#000000">return to original state [func22]</text>
</g>
<!-- create[user]&#45;&gt;user -->
<g id="edge13" class="edge">
<title>create[user]-&gt;user</title>
<path fill="none" stroke="#000000" d="M880.4787,-746.3476C869.9491,-731.0953 852.908,-709.8389 832.814,-697.6084 764.0258,-655.7391 718.7399,-705.2273 657.0986,-653.4084 635.0541,-634.8766 623.3927,-603.3787 617.5155,-580.4761"/>
<polygon fill="#000000" stroke="#000000" points="620.8983,-579.5712 615.2057,-570.6356 614.0835,-581.1708 620.8983,-579.5712"/>
<text text-anchor="middle" x="744.9563" y="-701.6084" font-family="Times,serif" font-size="14.00" fill="#000000">return to original state [func21]</text>
</g>
<!-- info[admin]&#45;&gt;admin -->
<g id="edge15" class="edge">
<title>info[admin]-&gt;admin</title>
<path fill="none" stroke="#000000" d="M277.9824,-192.986C270.3022,-191.1653 262.3019,-189.5786 254.686,-188.6084 214.4146,-183.4777 104.2664,-163.9713 72,-188.6084 50.3776,-205.1182 36.6359,-282.5963 30.584,-325.1829"/>
<polygon fill="#000000" stroke="#000000" points="27.1015,-324.8172 29.2109,-335.1999 34.0366,-325.7679 27.1015,-324.8172"/>
<text text-anchor="middle" x="163.343" y="-192.6084" font-family="Times,serif" font-size="14.00" fill="#000000">return to original state</text>
</g>
<!-- info[user]&#45;&gt;admin -->
<g id="edge17" class="edge">
<title>info[user]-&gt;admin</title>
<path fill="none" stroke="#000000" d="M884.4471,-665.6842C872.7607,-693.5501 849.6213,-744.485 832.814,-754.4084 765.565,-794.1137 734.5406,-764.4921 657.0986,-754.4084 390.3367,-719.6732 254.6564,-796.9055 72,-599.4084 42.9899,-568.0412 31.9882,-439.5018 28.4518,-381.7444"/>
<polygon fill="#000000" stroke="#000000" points="31.9311,-381.2848 27.8583,-371.5041 24.9429,-381.6899 31.9311,-381.2848"/>
<text text-anchor="middle" x="475.7556" y="-749.6084" font-family="Times,serif" font-size="14.00" fill="#000000">return to original state [func16]</text>
</g>
<!-- info[user]&#45;&gt;user -->
<g id="edge16" class="edge">
<title>info[user]-&gt;user</title>
<path fill="none" stroke="#000000" d="M877.6074,-629.2499C866.748,-616.774 850.6539,-601.0023 832.814,-592.6084 761.5363,-559.0711 733.496,-588.61 657.0986,-569.4084 654.4561,-568.7442 651.7563,-567.9732 649.0567,-567.1335"/>
<polygon fill="#000000" stroke="#000000" points="649.9785,-563.7505 639.3843,-563.859 647.7339,-570.3808 649.9785,-563.7505"/>
<text text-anchor="middle" x="744.9563" y="-596.6084" font-family="Times,serif" font-size="14.00" fill="#000000">return to original state [func15]</text>
</g>
<!-- list[admin]&#45;&gt;admin -->
<g id="edge18" class="edge">
<title>list[admin]-&gt;admin</title>
<path fill="none" stroke="#000000" d="M281.1675,-119.388C272.6296,-116.1635 263.494,-113.2958 254.686,-111.6084 214.8142,-103.9697 103.2222,-85.6607 72,-111.6084 39.6833,-138.4657 30.4593,-266.9472 27.9216,-324.9189"/>
<polygon fill="#000000" stroke="#000000" points="24.4128,-325.0708 27.5099,-335.2029 31.4072,-325.3509 24.4128,-325.0708"/>
<text text-anchor="middle" x="163.343" y="-115.6084" font-family="Times,serif" font-size="14.00" fill="#000000">return to original state</text>
</g>
<!-- list[user]&#45;&gt;admin -->
<g id="edge20" class="edge">
<title>list[user]-&gt;admin</title>
<path fill="none" stroke="#000000" d="M858.9314,-460.2864C850.5521,-457.2092 841.466,-454.3089 832.814,-452.4084 637.6064,-409.5291 583.5132,-435.8325 384.4126,-418.4084 245.4119,-406.2438 201.9387,-438.2521 72,-387.4084 65.8963,-385.02 59.9079,-381.5561 54.3918,-377.7424"/>
<polygon fill="#000000" stroke="#000000" points="56.2625,-374.7703 46.1638,-371.5658 52.06,-380.3684 56.2625,-374.7703"/>
<text text-anchor="middle" x="475.7556" y="-429.6084" font-family="Times,serif" font-size="14.00" fill="#000000">return to original state [func13]</text>
</g>
<!-- list[user]&#45;&gt;user -->
<g id="edge19" class="edge">
<title>list[user]-&gt;user</title>
<path fill="none" stroke="#000000" d="M877.9194,-492.5146C867.0985,-505.1504 850.9178,-521.1718 832.814,-529.4084 801.0889,-543.842 703.9517,-549.3622 649.7154,-551.3585"/>
<polygon fill="#000000" stroke="#000000" points="649.3454,-547.8691 639.4722,-551.7124 649.5872,-554.8649 649.3454,-547.8691"/>
<text text-anchor="middle" x="744.9563" y="-554.6084" font-family="Times,serif" font-size="14.00" fill="#000000">return to original state [func12]</text>
</g>
<!-- stop[admin]&#45;&gt;admin -->
<g id="edge21" class="edge">
<title>stop[admin]-&gt;admin</title>
<path fill="none" stroke="#000000" d="M282.5311,-31.2957C229.1482,-8.094 130.5491,23.4097 72,-27.6084 49.638,-47.094 33.9315,-249.5755 28.808,-325.1608"/>
<polygon fill="#000000" stroke="#000000" points="25.3014,-325.1447 28.1293,-335.3551 32.286,-325.6097 25.3014,-325.1447"/>
<text text-anchor="middle" x="163.343" y="-32.6084" font-family="Times,serif" font-size="14.00" fill="#000000">return to original state</text>
</g>
<!-- stop[user]&#45;&gt;admin -->
<g id="edge23" class="edge">
<title>stop[user]-&gt;admin</title>
<path fill="none" stroke="#000000" d="M855.7074,-357.7375C848.1615,-356.4989 840.2425,-355.3124 832.814,-354.4084 715.2582,-340.1021 685.4399,-339.0114 567.0986,-334.6084 378.121,-327.5772 151.9177,-343.2717 64.2517,-350.2651"/>
<polygon fill="#000000" stroke="#000000" points="63.9449,-346.7784 54.2593,-351.0728 64.5088,-353.7557 63.9449,-346.7784"/>
<text text-anchor="middle" x="475.7556" y="-338.6084" font-family="Times,serif" font-size="14.00" fill="#000000">return to original state [func19]</text>
</g>
<!-- stop[user]&#45;&gt;user -->
<g id="edge22" class="edge">
<title>stop[user]-&gt;user</title>
<path fill="none" stroke="#000000" d="M855.6049,-365.2221C804.8746,-368.2838 712.6752,-381.1323 657.0986,-432.6084 631.197,-456.5989 620.1124,-496.9656 615.4302,-524.1345"/>
<polygon fill="#000000" stroke="#000000" points="611.945,-523.7713 613.8843,-534.1871 618.8637,-524.8353 611.945,-523.7713"/>
<text text-anchor="middle" x="744.9563" y="-436.6084" font-family="Times,serif" font-size="14.00" fill="#000000">return to original state [func18]</text>
</g>
<!-- user&#45;&gt;config -->
<g id="edge24" class="edge">
<title>user-&gt;config</title>
<path fill="none" stroke="#000000" d="M598.8306,-534.4068C590.8121,-525.0966 579.7138,-514.6496 567.0986,-509.6084 497.0394,-481.6117 406.6839,-494.2608 356.7946,-504.9816"/>
<polygon fill="#000000" stroke="#000000" points="355.7775,-501.6226 346.7848,-507.2247 357.3082,-508.4532 355.7775,-501.6226"/>
<text text-anchor="middle" x="475.7556" y="-513.6084" font-family="Times,serif" font-size="14.00" fill="#000000">config user info / func11</text>
</g>
<!-- user&#45;&gt;create[user] -->
<g id="edge25" class="edge">
<title>user-&gt;create[user]</title>
<path fill="none" stroke="#000000" d="M614.7403,-570.5379C620.6418,-608.527 636.0502,-694.6079 657.0986,-714.4084 683.1346,-738.9007 779.7131,-753.0221 840.5823,-759.6725"/>
<polygon fill="#000000" stroke="#000000" points="840.4539,-763.1784 850.7672,-760.7522 841.192,-756.2174 840.4539,-763.1784"/>
<text text-anchor="middle" x="744.9563" y="-762.6084" font-family="Times,serif" font-size="14.00" fill="#000000">create instances / func23</text>
</g>
<!-- user&#45;&gt;info[user] -->
<g id="edge27" class="edge">
<title>user-&gt;info[user]</title>
<path fill="none" stroke="#000000" d="M621.3385,-570.4405C629.0495,-583.5226 641.3149,-600.4363 657.0986,-609.4084 725.5812,-648.3365 755.4355,-617.8494 832.814,-632.6084 837.1937,-633.4437 841.7335,-634.4059 846.2616,-635.4303"/>
<polygon fill="#000000" stroke="#000000" points="845.5526,-638.8591 856.089,-637.7475 847.1591,-632.0459 845.5526,-638.8591"/>
<text text-anchor="middle" x="744.9563" y="-636.6084" font-family="Times,serif" font-size="14.00" fill="#000000">show info / func17</text>
</g>
<!-- user&#45;&gt;list[user] -->
<g id="edge26" class="edge">
<title>user-&gt;list[user]</title>
<path fill="none" stroke="#000000" d="M625.899,-534.0784C633.9295,-524.8273 644.8696,-514.371 657.0986,-508.6084 728.1643,-475.1207 755.5065,-503.384 832.814,-489.4084 838.1463,-488.4444 843.7092,-487.2652 849.1967,-485.9956"/>
<polygon fill="#000000" stroke="#000000" points="850.0312,-489.3948 858.9267,-483.6397 848.3838,-482.5914 850.0312,-489.3948"/>
<text text-anchor="middle" x="744.9563" y="-512.6084" font-family="Times,serif" font-size="14.00" fill="#000000">list instances / func14</text>
</g>
<!-- user&#45;&gt;stop[user] -->
<g id="edge28" class="edge">
<title>user-&gt;stop[user]</title>
<path fill="none" stroke="#000000" d="M616.4469,-534.3026C622.1982,-514.622 634.3727,-483.9373 657.0986,-468.6084 722.2281,-424.6777 765.2842,-489.5518 832.814,-449.4084 854.9777,-436.2331 870.8416,-411.1162 880.5036,-391.5876"/>
<polygon fill="#000000" stroke="#000000" points="883.6756,-393.0669 884.7489,-382.5266 877.3368,-390.097 883.6756,-393.0669"/>
<text text-anchor="middle" x="744.9563" y="-472.6084" font-family="Times,serif" font-size="14.00" fill="#000000">stop instances / func20</text>
</g>
<!-- init -->
<g id="node12" class="node">
<title>init</title>
<ellipse fill="#000000" stroke="#000000" cx="319.5493" cy="-584.4084" rx="1.8" ry="1.8"/>
</g>
<!-- init&#45;&gt;user -->
<g id="edge29" class="edge">
<title>init-&gt;user</title>
<path fill="none" stroke="#000000" d="M321.5654,-584.5398C339.0727,-585.6318 467.085,-592.6159 567.0986,-570.4084 569.7785,-569.8133 572.5062,-569.0776 575.226,-568.2467"/>
<polygon fill="#000000" stroke="#000000" points="576.6247,-571.4668 584.941,-564.9025 574.3463,-564.848 576.6247,-571.4668"/>
</g>
</g>
</svg>